<svg xmlns="http://www.w3.org/2000/svg" viewBox="0 0 514.84 591.66"><defs><style>.cls-1,.cls-2{fill:#fff;}.cls-2{stroke:#fff;stroke-linejoin:round;stroke-width:0.99px;}</style></defs><title>Element 13-weiss</title><g id="Ebene_2" data-name="Ebene 2"><g id="Classic"><path class="cls-1" d="M116.57,279.06c.21-1.86.45-4.08.72-6.68s.56-5.32.86-8.15.57-5.65.85-8.42l.72-7.41q.72-7.32,1.52-12.64a81.75,81.75,0,0,1,1.81-9,26.24,26.24,0,0,1,2.3-6,11.11,11.11,0,0,1,2.94-3.51,9.12,9.12,0,0,1,3.76-1.65,25,25,0,0,1,4.81-.42,16.75,16.75,0,0,1,5.67,1,25.19,25.19,0,0,1,5.61,2.86,31.79,31.79,0,0,1,9.21,9.76,28.25,28.25,0,0,1,2.78,6.19,20.18,20.18,0,0,1,.13,12.39,56.86,56.86,0,0,1-2.81,7.64c-1.27,2.91-2.91,6.23-4.93,10s-4.41,8.05-7.2,12.9l4.21-.16c1.7-.06,3.53-.14,5.49-.23l6-.28,5.68-.31c1.75-.1,3.28-.22,4.57-.33a23.1,23.1,0,0,0,2.6-.35,9.31,9.31,0,0,1,2.95,3.95,13.05,13.05,0,0,1,1,4.93,16.34,16.34,0,0,1-.93,5.58,14.18,14.18,0,0,1-2.58,4.49,12,12,0,0,1-3.88,3,10.89,10.89,0,0,1-4.85,1.09c-2.44,0-4.73-.06-6.89-.16s-4.29-.26-6.42-.46a21.32,21.32,0,0,1,5.5,4.43,27.23,27.23,0,0,1,4.28,6.59,37.77,37.77,0,0,1,2.76,8.51,50,50,0,0,1,1,10.25,81.32,81.32,0,0,1-1.44,14.86,120.12,120.12,0,0,1-4,15.54,136.7,136.7,0,0,1-6.17,15.38,130.84,130.84,0,0,1-7.92,14.4A113.87,113.87,0,0,1,137,401.28a76.67,76.67,0,0,1-10.09,10,46,46,0,0,1-10.56,6.61,25.85,25.85,0,0,1-10.57,2.38q-10.8,0-16-4.83T84.62,401.9c0-1.34,0-2.66.13-3.95a37.24,37.24,0,0,1,.6-4.43q.45-2.5,1.31-5.81t2.27-8.08q1.42-4.77,3.54-11.25t5.06-15.31c.86-2.51,1.78-5.32,2.76-8.46s2-6.41,3-9.83,2-6.91,3.07-10.45,2-7,2.86-10.3,1.71-6.44,2.43-9.37,1.29-5.47,1.7-7.64q-5.93-.31-5.93-5.26a13.3,13.3,0,0,1,.77-4.44,15.86,15.86,0,0,1,2-4,12,12,0,0,1,2.92-2.94,6.94,6.94,0,0,1,3.4-1.32m21.52,33.19q-1.12,7.33-2.86,15.1t-3.74,15.35q-2,7.59-4.13,14.69t-4.1,13.13q-2,6-3.69,10.71t-2.79,7.35c-.1.32-.2.65-.28,1a4,4,0,0,0-.14.91,1.88,1.88,0,0,0,.7,1.6,3,3,0,0,0,1.83.51,5.52,5.52,0,0,0,3.39-1.62,26.73,26.73,0,0,0,4-4.52,66.45,66.45,0,0,0,4.23-6.79q2.15-3.9,4.18-8.44t3.82-9.52q1.78-5,3.1-10c.88-3.33,1.57-6.62,2.09-9.85a57.79,57.79,0,0,0,.77-9.14,41.74,41.74,0,0,0-1.72-12.8q-1.74-5.31-4.63-7.69"/><path class="cls-1" d="M177.15,321.75a23,23,0,0,1-1.7-6.45,55.32,55.32,0,0,1-.41-6.66,19.55,19.55,0,0,1,1.44-6.89,41,41,0,0,1,3.92-7.64,59.5,59.5,0,0,1,5.7-7.46,55.75,55.75,0,0,1,6.77-6.43,36.2,36.2,0,0,1,7.19-4.52A16.58,16.58,0,0,1,207,274a14.08,14.08,0,0,1,5.76.95,7.07,7.07,0,0,1,3.17,2.71,10.25,10.25,0,0,1,1.37,4.26,49.87,49.87,0,0,1,.28,5.6,20.75,20.75,0,0,1-.61,4.69c-.42,1.76-1,3.64-1.66,5.66s-1.48,4.1-2.37,6.27-1.83,4.37-2.79,6.61q-2.22,5.46-3.85,9.57t-2.7,7.2a47.89,47.89,0,0,0-1.6,5.36,18.36,18.36,0,0,0-.52,4.08,3.32,3.32,0,0,0,.77,2.48,3.15,3.15,0,0,0,2.22.72,8,8,0,0,0,3.41-1.36,35.49,35.49,0,0,0,5.7-4.52,106.18,106.18,0,0,0,7.8-8.28q4.41-5.14,9.73-12.68a7.84,7.84,0,0,1,3,.6,9.24,9.24,0,0,1,2.63,1.62,8.58,8.58,0,0,1,1.88,2.4,6.3,6.3,0,0,1,.72,3,15.5,15.5,0,0,1-1.47,5.91,46.71,46.71,0,0,1-4.08,7.36,92.53,92.53,0,0,1-6.11,8.1q-3.51,4.17-7.56,8.15a110.16,110.16,0,0,1-8.49,7.52,87.22,87.22,0,0,1-8.85,6.21,50.46,50.46,0,0,1-8.63,4.24,22.83,22.83,0,0,1-7.86,1.54,25.76,25.76,0,0,1-7.85-1,11.78,11.78,0,0,1-5.16-3.15,12.21,12.21,0,0,1-2.81-5.34,29.93,29.93,0,0,1-.86-7.61,55.15,55.15,0,0,1,.44-6.94,61.28,61.28,0,0,1,1.37-7.15q.93-3.72,2.37-7.9t3.41-9.08m27.3-80.32a75.58,75.58,0,0,1,.67-10.89,26.4,26.4,0,0,1,2-7.17,9.17,9.17,0,0,1,3.22-4,8.08,8.08,0,0,1,4.47-1.24,13.32,13.32,0,0,1,4.26.72,21.62,21.62,0,0,1,4.15,1.93,23.35,23.35,0,0,1,3.74,2.82,22.66,22.66,0,0,1,3,3.38,17.38,17.38,0,0,1,2,3.59,9,9,0,0,1,.75,3.45,15.1,15.1,0,0,1-.78,4.42,33.52,33.52,0,0,1-2.47,5.7,75.71,75.71,0,0,1-4.39,7.1q-2.68,3.9-6.5,8.54a13.94,13.94,0,0,1-5.71-1.16,11.88,11.88,0,0,1-4.46-3.46,17,17,0,0,1-2.92-5.73,27.51,27.51,0,0,1-1.06-8"/><path class="cls-1" d="M231,306.11q.93-5.16,2.09-11.28t2.27-12.47q1.11-6.35,2.14-12.59t1.76-11.67A79.31,79.31,0,0,1,244.07,239a55.61,55.61,0,0,1,8.13-14.35,34.83,34.83,0,0,1,10.56-9,25.11,25.11,0,0,1,12.05-3.12,21.21,21.21,0,0,1,6.14.83,11.26,11.26,0,0,1,4.64,2.63,11.73,11.73,0,0,1,3,4.67,20.62,20.62,0,0,1,1,6.89,31.18,31.18,0,0,1-.39,4.82,41.18,41.18,0,0,1-1.29,5.5q-.9,3-2.4,6.68t-3.71,8.42q-2.22,4.72-5.27,10.66t-7,13.36c-.72,2.55-1.5,5.33-2.32,8.34s-1.67,6.13-2.53,9.34-1.72,6.46-2.58,9.73-1.7,6.46-2.5,9.58S258,320,257.31,322.8s-1.29,5.34-1.81,7.59-.92,4.18-1.21,5.76a21.86,21.86,0,0,0-.44,3.35,3.27,3.27,0,0,0,.78,2.48,3.11,3.11,0,0,0,2.21.72,11.74,11.74,0,0,0,5.92-2.14,45.77,45.77,0,0,0,7.4-6,100.22,100.22,0,0,0,8.26-9.24,142.16,142.16,0,0,0,8.41-11.77,8.52,8.52,0,0,1,2.94.52,8.19,8.19,0,0,1,2.58,1.46,7.52,7.52,0,0,1,1.84,2.28,6.16,6.16,0,0,1,.69,2.91,17.78,17.78,0,0,1-1.52,6.71,45.41,45.41,0,0,1-4.18,7.75,78.13,78.13,0,0,1-6.27,8.18,96.46,96.46,0,0,1-7.82,8,109.94,109.94,0,0,1-8.82,7.25,78.92,78.92,0,0,1-9.29,5.93,54.26,54.26,0,0,1-9.19,4A28.1,28.1,0,0,1,239.3,370a26.36,26.36,0,0,1-7.8-1,12.41,12.41,0,0,1-5.19-3,11.72,11.72,0,0,1-2.86-5.06,25.85,25.85,0,0,1-.88-7.17,67,67,0,0,1,.52-7.85c.35-2.85.78-5.8,1.32-8.83s1.12-6.06,1.78-9.11,1.29-5.93,1.91-8.67,1.19-5.24,1.72-7.5.94-4.15,1.22-5.63"/><path class="cls-1" d="M360,307.19q6.49-9.75,12-16.47a91.7,91.7,0,0,1,10.17-10.83,37.2,37.2,0,0,1,8.67-6,17.89,17.89,0,0,1,7.43-1.84,14.71,14.71,0,0,1,6.38,1.29,13.23,13.23,0,0,1,4.49,3.44,14.29,14.29,0,0,1,2.66,5,20.12,20.12,0,0,1,.87,5.93,39.17,39.17,0,0,1-1.41,9.6,87.12,87.12,0,0,1-4.31,12.19c-.62,1.54-1.36,3.31-2.22,5.29s-1.74,4-2.63,6.19-1.79,4.32-2.69,6.5-1.69,4.24-2.37,6.17-1.25,3.66-1.68,5.18a14.49,14.49,0,0,0-.65,3.65,3.26,3.26,0,0,0,.75,2.45,3.14,3.14,0,0,0,2.2.69c1,0,2.48-.67,4.56-2a55.49,55.49,0,0,0,7.38-6,135.66,135.66,0,0,0,9.4-9.94q5.13-5.94,10.6-13.68a9.26,9.26,0,0,1,3,.5,8.6,8.6,0,0,1,2.63,1.39A7.1,7.1,0,0,1,437,318a5.82,5.82,0,0,1,.72,2.89,15.09,15.09,0,0,1-1.63,6,49.79,49.79,0,0,1-4.46,7.64,104.72,104.72,0,0,1-6.63,8.49q-3.79,4.41-8.18,8.62t-9.11,8a90.22,90.22,0,0,1-9.37,6.61,56.2,56.2,0,0,1-9,4.52,22.67,22.67,0,0,1-8,1.67,26,26,0,0,1-7.9-1,11.72,11.72,0,0,1-5.16-3.15,12.21,12.21,0,0,1-2.81-5.34,29.68,29.68,0,0,1-.86-7.56,37,37,0,0,1,.93-7.79q.93-4.29,2.33-8.76t3-8.85c1.07-2.92,2.06-5.61,3-8.08s1.71-4.6,2.33-6.42a14.08,14.08,0,0,0,.92-3.87,2.24,2.24,0,0,0-2.53-2.53,6.24,6.24,0,0,0-2.4.88,26.09,26.09,0,0,0-4,2.76,53,53,0,0,0-5.19,4.9A74.16,74.16,0,0,0,357,325q-1.14,6.07-2.07,11.48t-1.67,10.48c-.5,3.39-.92,6.76-1.24,10.11s-.58,6.83-.75,10.4a15.55,15.55,0,0,1-1.58,1.4,7,7,0,0,1-1.77,1,11.12,11.12,0,0,1-2.23.6,17.36,17.36,0,0,1-2.89.21,31.91,31.91,0,0,1-8.1-1,16.71,16.71,0,0,1-6.3-3.07,14.27,14.27,0,0,1-4.1-5.45,20.93,20.93,0,0,1-1.57-8.08,43.19,43.19,0,0,1,.59-6.78c.39-2.49.92-5.08,1.57-7.77s1.42-5.41,2.3-8.18,1.78-5.41,2.71-7.92c.41-1.17.83-2.33,1.27-3.49s.81-2.24,1.16-3.27.62-2,.85-2.84a8.9,8.9,0,0,0,.33-2.06,2.6,2.6,0,0,0-.62-2,2.73,2.73,0,0,0-1.9-.57,5.12,5.12,0,0,0-2.05.67,16.43,16.43,0,0,0-3.19,2.35,56.36,56.36,0,0,0-4.39,4.49,90.07,90.07,0,0,0-5.6,7.1q-1.08,6.09-2,11.48t-1.6,10.48q-.69,5.08-1.16,10.12t-.72,10.4a13.54,13.54,0,0,1-1.53,1.32,6.32,6.32,0,0,1-1.68.85,10.84,10.84,0,0,1-2.19.44c-.84.08-1.86.12-3.07.12a17.73,17.73,0,0,1-8.21-1.93,20.76,20.76,0,0,1-6.52-5.24,25.31,25.31,0,0,1-4.34-7.61,28.08,28.08,0,0,1-1.68-9.06,56.76,56.76,0,0,1,.41-6.53q.42-3.48,1.19-7.23c.52-2.49,1.14-5,1.88-7.56s1.56-5,2.46-7.48a23,23,0,0,1-1.7-6.45,55,55,0,0,1-.42-6.61,17.16,17.16,0,0,1,1.32-6.43,30.62,30.62,0,0,1,3.56-6.4A40.07,40.07,0,0,1,295,283.6a42.13,42.13,0,0,1,6.32-4.87,33.1,33.1,0,0,1,6.84-3.31,20.61,20.61,0,0,1,6.76-1.21q4.59,0,6.84,2c1.5,1.36,2.24,3.64,2.24,6.84a35.51,35.51,0,0,1-.3,4.36,46,46,0,0,1-1.06,5.34q-.75,2.94-2,6.48c-.85,2.35-1.91,4.93-3.18,7.72a148,148,0,0,1,10.71-16.37,68,68,0,0,1,9.24-10,27.06,27.06,0,0,1,8.1-5,21.44,21.44,0,0,1,7.25-1.37,13.83,13.83,0,0,1,5.32,1,10.88,10.88,0,0,1,3.9,2.63,11.24,11.24,0,0,1,2.4,3.95,14.2,14.2,0,0,1,.82,4.9c0,1.38,0,2.74-.1,4.1a27.06,27.06,0,0,1-.62,4.42,41.61,41.61,0,0,1-1.57,5.28,66.48,66.48,0,0,1-3,6.74"/><path class="cls-1" d="M31.32,84.54l73.45,74.84a12.64,12.64,0,0,1,3,4.75c.61,1.71-.27,3.71-2.61,6l-4.71,4.63-2.2,2.16-18.65,18.3c-2.34,2.31-4.36,3.14-6.06,2.51a12.81,12.81,0,0,1-4.7-3.15L47.35,172.65l12.51-12.28,10.88,11.08a5.43,5.43,0,0,0,2.37,1.65c.65.16,1.49-.27,2.51-1.28l6.26-6.13c1-1,1.46-1.84,1.33-2.49a5.57,5.57,0,0,0-1.61-2.41l-3.23-3.29L73,152,18.81,96.82Zm6,.17,73.35,74.72a19.86,19.86,0,0,1,1.94,2.3,7.25,7.25,0,0,1,1.17,2.51,4.81,4.81,0,0,1-.24,2.82,9.23,9.23,0,0,1-2.3,3.23l-4.71,4.62-2.18,2.15-18.6,18.25A7.91,7.91,0,0,1,82,197.66a6.68,6.68,0,0,1-3.15-.15A9.06,9.06,0,0,0,82,195.27l18.71-18.36,2.18-2.15,4.71-4.62a8.82,8.82,0,0,0,2.25-3.17,5.73,5.73,0,0,0,.29-2.77,5.87,5.87,0,0,0-1.07-2.51,19.77,19.77,0,0,0-1.93-2.3l-71.63-73Zm35,85.67-8.08-8.23,1.64-1.61,8.08,8.23Z"/><path class="cls-1" d="M117.41,28.9l48,93.57a19,19,0,0,1,1.17,2.77,6.36,6.36,0,0,1,.33,2.68,5,5,0,0,1-1,2.52,8.74,8.74,0,0,1-3.1,2.37L131,149.1a8.63,8.63,0,0,1-3.73,1.13,5.11,5.11,0,0,1-2.66-.62,6.56,6.56,0,0,1-2-1.84,18.3,18.3,0,0,1-1.58-2.56l-48-93.57,15.59-8,41.21,80.3a5.33,5.33,0,0,0,1.69,2.15c.57.34,1.48.19,2.74-.45l7.5-3.85c1.25-.64,1.9-1.29,2-2a5.31,5.31,0,0,0-.76-2.63L101.81,36.9Zm13.7,93.72-39-75.92,2.19-1.12,39,75.92Zm-8.05-91.79,48,93.57a19.45,19.45,0,0,1,1.17,2.77,6.71,6.71,0,0,1,.34,2.68,5.15,5.15,0,0,1-1,2.52,8.59,8.59,0,0,1-3.09,2.36L136.86,151a7.87,7.87,0,0,1-4.17,1.1,6.37,6.37,0,0,1-3-1,10.55,10.55,0,0,0,3.89-1.13l31.61-16.23a8.69,8.69,0,0,0,3-2.33,4.77,4.77,0,0,0,1.07-2.62,7.2,7.2,0,0,0-.34-2.67,18.61,18.61,0,0,0-1.13-2.71L120.88,32Z"/><path class="cls-1" d="M206.42,40.45l-2.07-12.12a4.93,4.93,0,0,0-1.08-2.7c-.5-.49-1.46-.61-2.87-.37l-8.49,1.44c-1.41.25-2.25.67-2.51,1.29a5.58,5.58,0,0,0-.05,2.89l9.05,53.2,1.29,7.58.77,4.55a5.62,5.62,0,0,0,1,2.72c.45.49,1.38.62,2.8.37l8.48-1.44c1.42-.24,2.28-.67,2.59-1.29a5,5,0,0,0,.13-2.91l-2.61-15.31a5,5,0,0,0-1.08-2.7c-.5-.49-1.46-.61-2.87-.37l-5.3.9-3.25-19.1,18.79-3.2a8.83,8.83,0,0,1,3.91,0,5.61,5.61,0,0,1,2.43,1.45,6.54,6.54,0,0,1,1.41,2.33,17.09,17.09,0,0,1,.71,2.84l7.7,45.2a12.24,12.24,0,0,1-.29,5.65c-.54,1.75-2.37,2.9-5.5,3.43l-25.77,4.38-3.18.55-6.52,1.1a8.68,8.68,0,0,1-3.91,0,4.89,4.89,0,0,1-2.35-1.47,7.33,7.33,0,0,1-1.34-2.34,18.42,18.42,0,0,1-.71-2.84L169.54,19a19.22,19.22,0,0,1-.27-3,6.59,6.59,0,0,1,.48-2.65,5.21,5.21,0,0,1,1.75-2.1,8.67,8.67,0,0,1,3.67-1.32l9.7-1.65,16.22-2.76,2.43-.41,7.12-1.22a8.83,8.83,0,0,1,3.91,0A5.72,5.72,0,0,1,217,5.29a5.93,5.93,0,0,1,1.41,2.33,19.66,19.66,0,0,1,.73,2.91l4.59,27Zm-4.8-13.53.41,2.43-5.3.9c-1.42.24-2.25.67-2.51,1.29a5.55,5.55,0,0,0-.06,2.89l9.05,53.2,1.29,7.58.13.76-2.27.39-.54-3.19-1.32-7.73-9-53a5.77,5.77,0,0,1,0-2.89c.23-.61,1-1,2.39-1.26ZM228,57.48a4.33,4.33,0,0,1,3.14,2.42,16.2,16.2,0,0,1,1.25,4.15l7.67,45.08a20.54,20.54,0,0,1,.28,3,7.32,7.32,0,0,1-.47,2.73,5,5,0,0,1-1.74,2.17,8.81,8.81,0,0,1-3.68,1.32l-25.76,4.38-3.19.54L199,124.37a7.92,7.92,0,0,1-4.33-.2,5.24,5.24,0,0,1-2.43-1.92,9.18,9.18,0,0,0,3.89,0l6.52-1.11,3-.52,25.92-4.41a8.62,8.62,0,0,0,3.67-1.32,5,5,0,0,0,1.75-2.09,6.39,6.39,0,0,0,.49-2.65,19.23,19.23,0,0,0-.28-3L229.58,62a17.65,17.65,0,0,0-.56-2.39,8.59,8.59,0,0,0-1-2.17M211,79.29l-4.25.72-.41-2.43,4.4-.74Zm8.5-71.94a4.82,4.82,0,0,1,3.17,2.58,16.48,16.48,0,0,1,1.25,4.15l4.59,27L211.23,44l-.41-2.42,14.85-2.53-4.61-27.13a22,22,0,0,0-.56-2.4,9,9,0,0,0-1-2.17"/><path class="cls-1" d="M305.87,118.22l-49.68-6.68L271.17,0l49.68,6.67-2.58,19.2L286,21.53l-4.34,32.31,20.11,2.7-2.07,15.39-20.11-2.7-3.27,24.38-.27,2,3.05.41,29.25,3.93Zm3.71-13.78,2.44.33-2.46,18.29-49.68-6.67.35-2.59,47.24,6.34Zm-4.15-43.06-2.06,15.39-20-2.68-2.77,20.57-2.43-.32,3.08-23,20,2.69,1.74-13Zm19.11-49.87L322,30.71,289.81,26.4l-3.37,25.14L284,51.21l3.7-27.58L319.85,28l2.25-16.76Z"/><path class="cls-1" d="M422.22,43.2l-49,101.67-1.38-.67-14.41-6.94L367,75l-26.17,54.29L325,121.64,374,20l1.39.67,14.4,6.94-9.54,62.31,26.16-54.3ZM363.84,85.73c-.41,1.51-.77,3-1.09,4.59s-.58,3.08-.77,4.58l-19.29,40L327,127.39l1.13-2.36,13.58,6.54ZM424.1,48.88l-49,101.67-1.51-.73-14.28-6.88.44-2.69,12.78,6.16,1.51.72L421.9,47.82ZM383,79.6l7.29-47,1.52.73-6.41,41.29Z"/><path class="cls-1" d="M500.44,103.94a8.9,8.9,0,0,1,2.3,3.16,5.62,5.62,0,0,1,.33,2.76,5.81,5.81,0,0,1-1,2.53,19.66,19.66,0,0,1-1.9,2.32l-44.32,46.34-4.89,5.11L433.4,184.5a12.29,12.29,0,0,1-4.71,3.15q-2.6.93-6-2.37l-15.11-14.45-.67-.64-15.33-14.66,77.79-81.34,15.33,14.66.67.64,8.11,7.76,1.78,1.7Zm2.49,9.19a4.83,4.83,0,0,1-.18,4.09,16.8,16.8,0,0,1-2.59,3.48L455.85,167,451,172.15l-17.43,18.22a18.23,18.23,0,0,1-2.24,2,7.24,7.24,0,0,1-2.47,1.26,5,5,0,0,1-2.77-.1,8.8,8.8,0,0,1-3.26-2.16l-15.11-14.45-.78-.75-15.23-14.55,1.81-1.89,13.45,12.86.78.74,15.11,14.45a8.56,8.56,0,0,0,3.25,2.15,4.94,4.94,0,0,0,2.72.16,6.32,6.32,0,0,0,2.43-1.19,20,20,0,0,0,2.24-2l17.42-18.22,4.89-5.12,44.42-46.45a18.13,18.13,0,0,0,1.59-1.88,8.75,8.75,0,0,0,1.15-2.09m-25.87.36a5,5,0,0,0,1.51-2.48c.09-.69-.39-1.55-1.43-2.55l-8.54-8.16-50.9,53.23,8.53,8.16q1.57,1.5,2.61,1.32a4.87,4.87,0,0,0,2.41-1.63Zm-.62-3.14-1.7,1.78-5.89-5.63L422,155.5l-1.78-1.7L468.77,103Z"/><path class="cls-1" d="M166.75,501.76,171,492.2a4.24,4.24,0,0,0,.5-2.42c-.12-.58-.75-1.12-1.86-1.61l-6.69-3c-1.12-.49-1.91-.58-2.39-.27a4.86,4.86,0,0,0-1.39,2l-22.77,51.52a4.66,4.66,0,0,0-.56,2.39q.12.86,1.8,1.59l6.69,3c1.12.49,1.93.59,2.45.29a4.25,4.25,0,0,0,1.45-2l5.92-13.39,13.63,6L156.6,561.58a10.45,10.45,0,0,1-2.86,3.88q-1.8,1.49-5.51-.15l-20.32-9-2.51-1.11L120.26,553a7.5,7.5,0,0,1-2.75-1.86,4.2,4.2,0,0,1-1-2.15,6.15,6.15,0,0,1,.16-2.29,14.64,14.64,0,0,1,.82-2.35l33.18-75.07A16.17,16.17,0,0,1,151.9,467a5.47,5.47,0,0,1,1.59-1.65,4.37,4.37,0,0,1,2.22-.67,7.57,7.57,0,0,1,3.23.79l7.64,3.38,12.8,5.65,1.91.85,5.62,2.48a7.63,7.63,0,0,1,2.75,1.86,4.82,4.82,0,0,1,1.06,2.12,5.06,5.06,0,0,1-.09,2.31,16.87,16.87,0,0,1-.85,2.41l-9.41,21.28Zm.83,38.52,1.91.85-11.09,25.1a16.09,16.09,0,0,1-1.21,2.25,5.94,5.94,0,0,1-1.62,1.72,4.12,4.12,0,0,1-2.24.72,7.48,7.48,0,0,1-3.23-.78l-20.32-9-2.51-1.1-5.14-2.28a6.68,6.68,0,0,1-3-2.17,4.38,4.38,0,0,1-.82-2.5,7.61,7.61,0,0,0,2.78,1.8l5.14,2.27,2.39,1.06,20.44,9a7.19,7.19,0,0,0,3.22.78,4.28,4.28,0,0,0,2.22-.66,5.47,5.47,0,0,0,1.59-1.65,15.22,15.22,0,0,0,1.21-2.26Zm1.64-50.57-.85,1.91L164.66,490c-1.11-.49-1.9-.58-2.38-.26a4.64,4.64,0,0,0-1.39,2L139.7,539.68l-1.79-.79,22-49.85a4.9,4.9,0,0,1,1.37-2c.45-.32,1.22-.25,2.29.23Zm22.33-5.27a4.1,4.1,0,0,1,1,3.31,14.33,14.33,0,0,1-1.06,3.53l-9.41,21.28-9.2-4.07.84-1.91,7.29,3.22,9.46-21.39a18.51,18.51,0,0,0,.73-2,7.37,7.37,0,0,0,.31-2"/><path class="cls-1" d="M230.74,489.91l-1.41,97.22-15.52-3L215,563.14l-14.36-2.83L193,580l-15.78-3.1,37.84-90.06Zm-16.81,74.61-.15,2.11-10.26-2-7.6,19.68-15.77-3.1.81-2.11,13.21,2.6,7.58-19.55Zm-6.22-19.87,7.44,1.47,0-18.79Zm5.9-9.63v6.13l-1.25,3-2.56-.5Zm20-40.81-1.41,97.22-15.51-3,.17-2.23,13.72,2.69,1.37-95Z"/><path class="cls-1" d="M310.7,485,323,580.15,308.17,582,301.5,530.2l-6.39,36.4.19.37-.26,0-13.23,1.7-.26,0,.09-.41-15.4-33.6,6.67,51.85-14.77,1.9-12.25-95.14,1.3-.17,13.48-1.73,24.92,54.38,10.27-58.91Zm-41.45,60.81c.46,1,.91,2,1.36,2.92s.91,1.93,1.37,2.92l4.9,38.11-14.78,1.9-.28-2.2,12.83-1.65Zm15-5.49-20.88-45.53,1.43-.19,20,43.68Zm15,29.44.16.24-13.74,1.77.1-.28-.75-1.74,12-1.56-.16-.24,4.5-25.48,1.1,8.55Zm15.72-81.61,12.24,95.14-14.9,1.92L312,583l12.71-1.63-12-92.94Z"/><path class="cls-1" d="M367.37,567.42l-45.08-84.68,32.06-17.07a7.54,7.54,0,0,1,3.17-1,4.19,4.19,0,0,1,2.29.56,6.25,6.25,0,0,1,1.71,1.54,15.42,15.42,0,0,1,1.34,2.1l24.8,46.59a7.5,7.5,0,0,1,1.09,4.68c-.22,1.36-1.36,2.59-3.44,3.69l-18.92,10.07,14.13,26.54Zm-7.06-45,8.68-4.62c1.06-.56,1.62-1.13,1.66-1.7a4.53,4.53,0,0,0-.68-2.24l-14.24-26.74a4.87,4.87,0,0,0-1.54-1.93c-.49-.28-1.27-.14-2.34.43l-8.67,4.62Zm-7.17-35.71,1,1.84L348,491.85l13.7,25.72-1.73.92L345.3,490.92Zm39.3,30.16a7.3,7.3,0,0,1,1,4.7q-.39,2.05-3.39,3.66l-18.92,10.07L385.35,562l-13,6.94-1.05-2,11.31-6-14.13-26.54,18.83-10q3-1.59,3.36-3.64a7.26,7.26,0,0,0-1-4.71l-24.75-46.49a15,15,0,0,0-1.1-1.78,7,7,0,0,0-1.38-1.49,3.7,3.7,0,0,1,3.19,1.12,14.07,14.07,0,0,1,2.12,3Z"/><path class="cls-1" d="M27,421.43a11,11,0,1,0,7.29,13.82A11.07,11.07,0,0,0,27,421.43"/><path class="cls-1" d="M54.3,429.87a11,11,0,1,0,7.29,13.81,11.06,11.06,0,0,0-7.29-13.81"/><path class="cls-1" d="M61.77,448.4a13.3,13.3,0,0,0-21.34-15.89l0,.05h0a1.85,1.85,0,0,1-3.31-1h0a13.29,13.29,0,1,0-16.69,13.36l27,8.36a13.33,13.33,0,0,0,14.36-4.85m-41.52-5.07a11.88,11.88,0,1,1,14.86-7.83,11.88,11.88,0,0,1-14.86,7.83m27.28,8.44a11.88,11.88,0,1,1,14.85-7.84,11.88,11.88,0,0,1-14.85,7.84"/><polygon class="cls-1" points="74.24 478.76 75.34 479.63 56.95 503.03 55.85 502.17 55.74 499.26 53.91 498.57 53.82 495.66 51.98 494.96 51.87 492.05 50.04 491.36 49.94 488.45 48.1 487.75 44.47 484.92 54.75 471.83 58.37 474.68 59.49 476.29 62.34 475.7 63.45 477.32 66.31 476.73 67.42 478.35 70.27 477.75 71.38 479.37 74.24 478.76"/><path class="cls-1" d="M28.19,457.31l-12.42-9.76L10,443l-3.22-4.32L0,447.29l5,2.11L10.74,454l12.42,9.76a4.07,4.07,0,1,0,5-6.4"/><path class="cls-1" d="M57.27,460.61l-7.33-5.76-30.19-9.17a3.08,3.08,0,0,0-3.32,1l0,.06h0l-.09.12,12.42,9.76a4.91,4.91,0,0,1-6.07,7.73l-12.42-9.76-.73.93h0a4,4,0,0,0,.81,5.48l0,0L42.3,486.16l15.64-19.9a4,4,0,0,0-.67-5.65"/><path class="cls-1" d="M487.82,421.43a11,11,0,1,1-7.29,13.82,11.06,11.06,0,0,1,7.29-13.82"/><path class="cls-1" d="M460.54,429.87a11,11,0,1,1-7.29,13.81,11.06,11.06,0,0,1,7.29-13.81"/><path class="cls-1" d="M467.43,453.25l27-8.36a13.3,13.3,0,1,0-16.69-13.36h0a1.85,1.85,0,0,1-3.31,1h0l0-.05a13.3,13.3,0,1,0-7,20.74m12.3-17.75a11.88,11.88,0,1,1,14.86,7.83,11.9,11.9,0,0,1-14.86-7.83m-27.27,8.43a11.88,11.88,0,1,1,14.85,7.84,11.89,11.89,0,0,1-14.85-7.84"/><polygon class="cls-1" points="440.61 478.76 439.5 479.63 457.89 503.03 459 502.17 459.1 499.26 460.93 498.57 461.03 495.66 462.86 494.96 462.97 492.05 464.81 491.36 464.9 488.45 466.74 487.75 470.37 484.92 460.09 471.83 456.47 474.68 455.35 476.29 452.5 475.7 451.4 477.32 448.54 476.73 447.43 478.35 444.58 477.75 443.47 479.37 440.61 478.76"/><path class="cls-1" d="M486.65,457.31l12.42-9.76,5.79-4.55,3.22-4.32,6.76,8.61-4.94,2.11L504.1,454l-12.42,9.76a4.07,4.07,0,1,1-5-6.4"/><path class="cls-1" d="M457.57,460.61l7.33-5.76,30.19-9.17a3.07,3.07,0,0,1,3.32,1l0,.06h0l.09.12-12.42,9.76a4.91,4.91,0,0,0,6.07,7.73l12.42-9.76.73.93h0a4.05,4.05,0,0,1-.82,5.48l0,0-31.95,25.11-15.65-19.9a4,4,0,0,1,.67-5.65"/><path class="cls-2" d="M205.06,405.12a.34.34,0,0,1,.39.38,4.49,4.49,0,0,0,.23,2.17,8.83,8.83,0,0,0,.7,3.57l.08.16a2.64,2.64,0,0,0,.15.77,2.53,2.53,0,0,0,.16.85l.23.86v.46a1.35,1.35,0,0,1,.15.54l.24.62a6.58,6.58,0,0,0,.31,1.24l.07.47v.23c.06.05.08.23.08.54a1.31,1.31,0,0,1,.08.78l.85,2.94.16.31a3.77,3.77,0,0,0,.23,1.24v.24a3.83,3.83,0,0,1,.23,1,7.94,7.94,0,0,0,.16,1l.23.78.08.38.23.62a5.76,5.76,0,0,0,.23,1.09,27.22,27.22,0,0,1,.54,2.79l.08.62.23,1.32-.23.08-.39-.24a14.33,14.33,0,0,0-.23-2.4,12.19,12.19,0,0,0-.46-2l-.16-.85v-.23l-.15-.23-.24-.93V426l-.15-.24a4.53,4.53,0,0,0-.31-1.55l-.08-.62-.15-1-.31.07a2.63,2.63,0,0,0-2.25-.07h-1.16a12.45,12.45,0,0,0-1.94,0h-.54l-.24-.08a1.61,1.61,0,0,1-.54,0,.7.7,0,0,0-.39,0l-.23-.16-.77,2.71-.16.31-.08.39a1.85,1.85,0,0,0-.15.54c-.26.57-.47,1.06-.62,1.48l-.31.85-.39,1.78-.23.85-.23,1.25c-.11.36-.26.56-.47.62l-.15-.24a8.57,8.57,0,0,0,.38-1.7,4.18,4.18,0,0,0,.24-.93,6.41,6.41,0,0,0,.31-1.48,1.32,1.32,0,0,0,.23-.54,3.72,3.72,0,0,1,.31-.77l.31-.93.15-.16.16-.39.08-.31.23-.69a5.94,5.94,0,0,0,.23-1.09l.31-.93a6.62,6.62,0,0,1,.7-1.78l.08-.85a2.59,2.59,0,0,0,.15-.93,1.41,1.41,0,0,1,.08-.55,2.6,2.6,0,0,0,.15-.62l.08-.54v-.23l.16-.31a2.49,2.49,0,0,1,.23-1,3.23,3.23,0,0,1,.23-1.08v-.31a3.72,3.72,0,0,1,.39-1.55l.08-.47.07-.39a4.76,4.76,0,0,0,.39-1.16l.08-.7.31-.93.23-.46.23-.86a3.25,3.25,0,0,1,.24-1.16v-.23l.31-1.09.07-.46Zm-.23,1.24-.31,1.55-.08.23a2.77,2.77,0,0,1-.15.85,6.47,6.47,0,0,0-.7,2.48l-.08.16-.31,1v.23a6.55,6.55,0,0,0-.46,1.78c-.06.05-.08.26-.08.62l-.54,1.94-.08.54L202,418l-.54,3.49-.23.47a3.78,3.78,0,0,0,1.39.07l.23.08a2.12,2.12,0,0,1,.62-.08c.06.06.24.06.55,0h1.16l.31.08.23-.08h.62l.78-.15a7.43,7.43,0,0,0,1.16-.08,4.45,4.45,0,0,0-.39-1.7l-.15-.78-.08-.54-.08-.39a4,4,0,0,1-.15-1.08,6.78,6.78,0,0,1-.31-1.24l-.31-1.24a2.37,2.37,0,0,1-.24-1.09l-.54-2.4-.15-.23.07-.24-.38-.93a3.25,3.25,0,0,1-.16-1.47l-.08-.23A4.12,4.12,0,0,0,204.83,406.36Z"/><path class="cls-2" d="M216.63,404.81h1.86l.23.07h.47l.23.08.23-.08a3.25,3.25,0,0,0,1.09.16l.23.08a4.9,4.9,0,0,1,1.24.38h.23a8.48,8.48,0,0,1,2.41,4.65,6.77,6.77,0,0,1-2.56,6.67,11.21,11.21,0,0,1-5.82,3.95,5,5,0,0,0,.93,1.63,1.92,1.92,0,0,1,.47.78l.31.31.08.31.23.15a4.84,4.84,0,0,0,.46.85,5.87,5.87,0,0,1,.62,1.32l.24.54.23.62.08.24.77,1.63.39.62a1,1,0,0,1,.16.3l.23.39.62.78a1.54,1.54,0,0,0,.39.54l.15.16a1,1,0,0,1-.15.54h-.55l-.69-1.24-.31-.39-.08-.16a1.63,1.63,0,0,1-.31-.77l-.23-.39-.16-.15-2.33-5-.38-.62-.24-.31-.46-.7a4.3,4.3,0,0,1-.85-1.32l-.16-.15-.15-.39c-1.19.1-1.84.42-1.94.93l.08,2.33a6.91,6.91,0,0,1,.07,1.08,3.24,3.24,0,0,0-.07.54l.07,1.86.08.55-.08,1.55.08.15v2.1l.08.93a.87.87,0,0,1-.54.31,2.27,2.27,0,0,1-.08-1.32v-1.17l-.08-.23c.05-.62.08-1.42.08-2.4v-.62a5.14,5.14,0,0,0-.08-.78l.08-.38a.34.34,0,0,1,0-.31v-1l-.08-.31-.08-1.94a.72.72,0,0,1,0-.46v-.47a1.76,1.76,0,0,1-.38-.7.7.7,0,0,1,.38-.38v-.93l-.07-.24v-.77a.41.41,0,0,1-.08-.31v-2.09l.08-.16v-1.94l-.08-.38v-1.17c0-.41,0-.93.08-1.55v-1.08l.07-.47a2.27,2.27,0,0,1-.15-1.16l-.08-.16a7.56,7.56,0,0,1,.16-1.39l-.08-.16v-.54l.08-.54a.61.61,0,0,1-.16-.47,4,4,0,0,1,1.55,0,2.12,2.12,0,0,1,.62-.07l.23.07A5.54,5.54,0,0,1,216.63,404.81Zm.15.54-1.24.31-1.7.08-.23.31a11.48,11.48,0,0,1,0,2.63,3.56,3.56,0,0,0,.15.93l.08.24v.46a4.81,4.81,0,0,0-.16,1.78l-.07.31.07.16.08,1.24.08.62a1.32,1.32,0,0,1-.08.54v.93l-.08.47v1.93l.08.62a4.12,4.12,0,0,0,.08.93v.7a2.82,2.82,0,0,0,1.24-.15,5.26,5.26,0,0,0,1.47-.31,8.91,8.91,0,0,0,5-3.41,6.81,6.81,0,0,0,2.64-7.21,4.34,4.34,0,0,0-.62-1.32l-.16-.47-.31-.46-.15-.16-.31-.46-.55-.54-2.71-.62a2.5,2.5,0,0,0-.7.07A10.39,10.39,0,0,0,216.78,405.35Z"/><path class="cls-2" d="M237.17,404.88c.93.26,1,.47.08.62a12.17,12.17,0,0,1-2.1,0,8.56,8.56,0,0,0-1.39.16h-.85a3.59,3.59,0,0,1-1.09.15l-.31.08a5,5,0,0,0-.93-.08l-.39.08-.93-.15H229a2.79,2.79,0,0,0-1.16-.08l-.16-.08-.54.23v1.4l.08.54-.08.31v.7a3.37,3.37,0,0,1,.08.77,5.32,5.32,0,0,1,0,1.79v.31l.08.69a1,1,0,0,1,0,.55l.07,1.94.16.54a4,4,0,0,0,.08.77l-.08.24c.05.05.05.15,0,.31l.08.38-.08.7.08.31a3,3,0,0,0,1.16.08h1.32l.38.08h.93l.86-.08.38.15a.87.87,0,0,1-.15.47.81.81,0,0,1-.47-.16,3.41,3.41,0,0,1-1.31.08,2.83,2.83,0,0,1-.86-.15,3.79,3.79,0,0,1-.85.07,2.36,2.36,0,0,1-1.24,0l-.15.16.07,2.32a6.94,6.94,0,0,1,.08,1.09l-.08,2.87a5.12,5.12,0,0,1,0,1.24,1.91,1.91,0,0,0-.15,1.08l.08,1.94a3.78,3.78,0,0,0,.15,1.47l-.08.54v1.17h4.19a2.42,2.42,0,0,1,.85,0,6.47,6.47,0,0,1,1.4,0,.34.34,0,0,0,.31,0l.54.08h.7l.46.07.47-.07a4.43,4.43,0,0,1,1.86-.39c.31.05.41.23.31.54a6.78,6.78,0,0,0-1.86.31h-.62l-.24.08-3.72-.16-.15-.07a2.1,2.1,0,0,1-.47.15l-1.55-.08-.85.08-1-.08a2,2,0,0,0-.93.24L227,433l.23-.39-.08-2.48-.08-.46a8,8,0,0,0,0-1.55,3.62,3.62,0,0,1,0-.89,5.25,5.25,0,0,1,.28-1.21l-.08-.46v-1.24a4.11,4.11,0,0,1,.08-.78v-2.24a4.73,4.73,0,0,1-.08-1l-.08-.23v-1.71l-.08-.54-.15-3.88-.08-.77a6.47,6.47,0,0,0,0-1.4V409.3l-.08-.54c-.05-.05-.05-.16,0-.31l-.07-.16a7.31,7.31,0,0,0-.16-2.94,1.06,1.06,0,0,0,.16-.31,9.29,9.29,0,0,1,1.78.23l.15-.08a5.94,5.94,0,0,1,1.24.16l.31.08,1.79-.08.93-.23,1.16.07.46-.15.16-.08A5.66,5.66,0,0,0,237.17,404.88Z"/><path class="cls-2" d="M241.49,404.57l.39.24a2,2,0,0,1,.08.62,5.25,5.25,0,0,1,.54,1.16,1.87,1.87,0,0,1,.46.77,1,1,0,0,1,.16.31l.39.86a6.8,6.8,0,0,1,.62,1.24,4.54,4.54,0,0,1,.69,1l.24.16.69,1.24.16.15a4.62,4.62,0,0,0,.7,1l.15.23.62,1.25.16.54.07.15a1.78,1.78,0,0,1,.47.55l.15.23.7,1.39.16.24.15.38.31.47a6.24,6.24,0,0,1,.85,1.7,8.68,8.68,0,0,1,1.09,1.63l.47.78.46.93.93,1.31a5.85,5.85,0,0,0,.93,1.71l.39.77.54,1.09.23.15a6.77,6.77,0,0,0,.78,1.4l.23.23.23.55.08-.86a1.28,1.28,0,0,1,0-.62v-.23l.16-.93a2.79,2.79,0,0,1-.08-1.16v-1.32l-.08-.23-.15-6.2a10.54,10.54,0,0,0,.15-1.94l-.08-.62.16-1.55v-.23a11.38,11.38,0,0,1-.08-1.48,10.12,10.12,0,0,0,.23-1.55l.08-.62-.08-.15v-.62a5.14,5.14,0,0,1,.08-.78V408a3.25,3.25,0,0,1,0-1.39l-.08-.16v-1.16a.66.66,0,0,1,.39-.46l.23.23a5.54,5.54,0,0,0-.07,2.09l-.08.23.08.86v1.93l-.08.86a1.91,1.91,0,0,1,0,.77v.39l-.08.47-.15.85v1.7l.07.16a1.28,1.28,0,0,0,0,.62l-.07.23V418l-.08.7a4.3,4.3,0,0,1-.16,1.55l.08.23a7.81,7.81,0,0,1,.08,1.94l.08.54-.08.31a6.94,6.94,0,0,1,.08,1.09l.15,1.32a5.7,5.7,0,0,0,0,1.31v1.24l.08.16-.08.39c-.05.05-.05.15,0,.31a3,3,0,0,0-.08,1.16l-.07,1.63-.08.31.15.23-.23.39a.53.53,0,0,1-.39-.16l-.54-1.39a1.57,1.57,0,0,0-.31-.62l-.23-.39-.08-.23-2.32-4-.16-.15a3.57,3.57,0,0,0-.62-1.16l-.08-.16-.54-.85a3.51,3.51,0,0,0-.31-.62,5.52,5.52,0,0,0-.39-.7,4.1,4.1,0,0,0-.77-1l-.24-.54-.15-.15a17.53,17.53,0,0,1-1-2l-1-1.78-.23-.39-.08-.31a13.17,13.17,0,0,1-.77-1.32,10.15,10.15,0,0,0-.47-1,8.79,8.79,0,0,1-.77-1.17l-.31-.46-.23-.39-.24-.46-.85-1.09a.88.88,0,0,1-.15-.31,4,4,0,0,1-.47-.93l-.23-.39-.23-.31-.08-.31-1.09-1.94a9,9,0,0,0,.16,1.55l.08.62-.08.55-.08.23a3.41,3.41,0,0,1,0,1l.08.39a6.48,6.48,0,0,0-.16,1.62,1,1,0,0,0,0,.55l-.15,1.55-.08.23a1.28,1.28,0,0,1,0,.62v5.11l-.08.39a5.29,5.29,0,0,0,0,1.78v1.94l.08.23-.08.31v1.4l.08.39-.15,1.08V428a4.28,4.28,0,0,0,0,1.24,2.61,2.61,0,0,0-.08.55,6.74,6.74,0,0,1,.08,1.78v.7l.07.31-.15.62a1,1,0,0,1-.54-.86,2.28,2.28,0,0,0,0-1.16,2.07,2.07,0,0,0,.07-.62V428.6l.08-.85c0-.36,0-.83.08-1.4V425l-.08-.47a9,9,0,0,0,.08-1.24l-.08-2.25a2,2,0,0,0,.08-.62,5,5,0,0,0,.08-.77v-2.33a7.94,7.94,0,0,0,0-1.55,1.39,1.39,0,0,1,.07-.54L241,415a18.67,18.67,0,0,1,.23-2v-.85l.08-.31-.16-.23a3.18,3.18,0,0,0,.2-.82c0-.28,0-.58,0-.89v-1l.08-.46a.52.52,0,0,1,0-.39,5.87,5.87,0,0,1-.23-1.78A2.22,2.22,0,0,1,241.49,404.57Z"/><path class="cls-2" d="M259.67,404a5.47,5.47,0,0,1,1.24.16l1-.08.23.08.31-.08a2.42,2.42,0,0,0,.85,0h.85l.39.08.93.23.31.08a7.79,7.79,0,0,0,1.47.85,1.77,1.77,0,0,0,.55.46l.15.16,1,1.39.15.16.16.39a6.93,6.93,0,0,1,.7,1.24,6.68,6.68,0,0,1,.31.81,4.75,4.75,0,0,0,.54,1.13l.23.61a2.81,2.81,0,0,0,.16.94v.46l.07.23.31,2.72.08.54.08.31v.93a5.31,5.31,0,0,1,.15,1.39l.08.55-.08.15a4.6,4.6,0,0,1,.12.78,2.14,2.14,0,0,1-.12.93l.08.31a3.37,3.37,0,0,0-.15.85,6.68,6.68,0,0,1-.08.85l-.31,1.94-.08.62-.08.31a5.26,5.26,0,0,0-.38,1.16l-.93,1.55-.08.23a12.1,12.1,0,0,1-8.76,3.49l-.78.24.16-.62a.66.66,0,0,1-.19-.59,3.32,3.32,0,0,0,0-.81v-.31a9,9,0,0,1,.07-1.08l-.07-2.33.15-1.09a2.38,2.38,0,0,0-.08-.77,4.78,4.78,0,0,0-.15-1.09l.15-1.31a11.34,11.34,0,0,0,.08-1.55,8,8,0,0,1-.23-1.4l-.08-.39.08-.85v-.62l-.08-.85-.08-.54-.07-.39v-1.24l.07-.16L260,415a.34.34,0,0,0,0-.31v-.31a7.14,7.14,0,0,1,0-2.17v-.23a2.76,2.76,0,0,0-.16-.93l-.08-.39v-.23a7,7,0,0,1,.08-.93l-.08-.23a3.48,3.48,0,0,0,.08-1.32l-.08-1.86a2.93,2.93,0,0,0-.23-1.48A1.2,1.2,0,0,1,259.67,404Zm3.87.47a6.66,6.66,0,0,1-2.32.07,2.82,2.82,0,0,0-1.09.08l.08,3.26.08.38v1.24a5.86,5.86,0,0,0-.08,1.17,9.91,9.91,0,0,1,.23,1.47l-.08,1.32a5.15,5.15,0,0,0,.08.77l.08,3.41a1.28,1.28,0,0,1,0,.62l.16.55v.54a2.07,2.07,0,0,0,.07,1.24l.08,1.32.08.54a6.6,6.6,0,0,0,0,2.87v1.24l-.08.31a3.62,3.62,0,0,0-.08,1.31l.08,1.86-.15.55.23,1.39.07.24-.07.23a4,4,0,0,0,2.4-.31,9,9,0,0,0,6.43-3.41l.93-1.94.39-1.94.08-.7.08-.46.07-.7c0-.57.11-1,.16-1.32a3.84,3.84,0,0,1,.15-1.16,4,4,0,0,1-.15-1.94l-.08-.62-.08-.23v-.46l-.07-.24.07-.23-.23-.85-.08-.62a2.67,2.67,0,0,0-.15-1.24v-.62l-.08-.23v-.62l-.08-.24V412l-1-2.41-.16-.23v-.23a7.37,7.37,0,0,0-.7-1.09l-.07-.15-.39-.62a3.89,3.89,0,0,0-.39-.55l-.23-.38A9.14,9.14,0,0,0,263.54,404.5Z"/><path class="cls-2" d="M279.92,405.48h.31q3.56-.23,3.33,1.71h-.23a2.82,2.82,0,0,0-3-1.09q-5.81.09-5.65,6.44a5,5,0,0,0,1.16,2.63l2.56.86a6,6,0,0,1,1.31.38l.31.08a6.19,6.19,0,0,1,1.09.31l.39.16a8.54,8.54,0,0,0,1.31.85,12.73,12.73,0,0,1,2.64,5.27l.08.15a6.11,6.11,0,0,1-.16,1.25v1a2.35,2.35,0,0,1-.15.54l-.16.86v.31l-.15.23a6,6,0,0,1-1.17,2.87q-1.4,4.26-6.89,2.79a4,4,0,0,0-1.24-.93,5.34,5.34,0,0,0-.78-.47l-.23-.23a4.35,4.35,0,0,1-.7-1.55l.39-.31a4.88,4.88,0,0,0,4.8,3.26q3.1.38,4.19-3l.39-.46q3.41-7.6-2.56-12L279,416.8l-.16-.08-.85-.15-.54-.23a4.78,4.78,0,0,1-1.32-.39h-.31a5.54,5.54,0,0,1-1.71-2.87Q273.41,406.11,279.92,405.48Z"/><path class="cls-2" d="M298.05,404.88c.93.26,1,.47.08.62a12.05,12.05,0,0,1-2.09,0,8.66,8.66,0,0,0-1.4.16h-.85a3.52,3.52,0,0,1-1.08.15l-.31.08a5,5,0,0,0-.93-.08l-.39.08-.93-.15h-.23a2.84,2.84,0,0,0-1.17-.08l-.15-.08-.55.23v1.4l.08.54-.08.31v.7a2.89,2.89,0,0,1,.08.77,4.84,4.84,0,0,1,0,1.79v.31l.08.69a1,1,0,0,1,0,.55l.08,1.94.15.54a5,5,0,0,0,.08.77l-.08.24c.05.05.05.15,0,.31l.08.38-.08.7.08.31a3,3,0,0,0,1.16.08H291l.39.08h.93l.85-.08.39.15a.81.81,0,0,1-.16.47.78.78,0,0,1-.46-.16,3.45,3.45,0,0,1-1.32.08,2.77,2.77,0,0,1-.85-.15,3.85,3.85,0,0,1-.85.07,2.36,2.36,0,0,1-1.24,0l-.16.16.08,2.32a6.94,6.94,0,0,1,.08,1.09L288.6,425a5.12,5.12,0,0,1,0,1.24,1.82,1.82,0,0,0-.16,1.08l.08,1.94a3.81,3.81,0,0,0,.16,1.47l-.08.54v1.17h4.18a2.48,2.48,0,0,1,.86,0,6.38,6.38,0,0,1,1.39,0,.34.34,0,0,0,.31,0l.54.08h.7l.47.07.46-.07a4.43,4.43,0,0,1,1.86-.39c.31.05.41.23.31.54a6.78,6.78,0,0,0-1.86.31h-.62l-.23.08-3.72-.16-.16-.07a2.28,2.28,0,0,1-.46.15l-1.55-.08-.86.08-1-.08a2,2,0,0,0-.93.24l-.39-.16.23-.39-.08-2.48-.07-.46a8,8,0,0,0,0-1.55,3.19,3.19,0,0,1,0-.89,4.71,4.71,0,0,1,.27-1.21l-.08-.46v-1.24a5.14,5.14,0,0,1,.08-.78v-2.24a5.49,5.49,0,0,1-.08-1l-.08-.23v-1.71l-.07-.54-.16-3.88-.07-.77a6.47,6.47,0,0,0,0-1.4V409.3l-.08-.54c-.05-.05-.05-.16,0-.31l-.08-.16a7.14,7.14,0,0,0-.16-2.94.73.73,0,0,0,.16-.31,9.2,9.2,0,0,1,1.78.23l.16-.08a6.11,6.11,0,0,1,1.24.16l.31.08,1.78-.08.93-.23,1.16.07.47-.15.15-.08A5.66,5.66,0,0,0,298.05,404.88Z"/><path class="cls-2" d="M312.2,404.88c.93.26,1,.47.08.62a12.17,12.17,0,0,1-2.1,0,8.56,8.56,0,0,0-1.39.16h-.85a3.59,3.59,0,0,1-1.09.15l-.31.08a5,5,0,0,0-.93-.08l-.39.08-.93-.15h-.23a2.79,2.79,0,0,0-1.16-.08l-.16-.08-.54.23v1.4l.08.54-.08.31v.7a3.37,3.37,0,0,1,.08.77,5.32,5.32,0,0,1,0,1.79v.31l.08.69a1,1,0,0,1,0,.55l.07,1.94.16.54a4,4,0,0,0,.08.77l-.08.24c.05.05.05.15,0,.31l.08.38-.08.7.08.31a3,3,0,0,0,1.16.08h1.32l.38.08h.93l.86-.08.38.15a.87.87,0,0,1-.15.47.81.81,0,0,1-.47-.16,3.41,3.41,0,0,1-1.31.08,2.83,2.83,0,0,1-.86-.15,3.79,3.79,0,0,1-.85.07,2.36,2.36,0,0,1-1.24,0l-.15.16.07,2.32a6.94,6.94,0,0,1,.08,1.09l-.08,2.87a5.12,5.12,0,0,1,0,1.24,1.91,1.91,0,0,0-.15,1.08l.08,1.94a3.78,3.78,0,0,0,.15,1.47l-.08.54v1.17h4.19a2.42,2.42,0,0,1,.85,0,6.47,6.47,0,0,1,1.4,0,.34.34,0,0,0,.31,0l.54.08h.7l.46.07.47-.07a4.36,4.36,0,0,1,1.86-.39c.31.05.41.23.31.54A6.78,6.78,0,0,0,312,433h-.62l-.24.08-3.72-.16-.15-.07a2.1,2.1,0,0,1-.47.15l-1.55-.08-.85.08-1-.08a2,2,0,0,0-.93.24l-.38-.16.23-.39-.08-2.48-.08-.46a8,8,0,0,0,0-1.55,3.62,3.62,0,0,1,0-.89,5.25,5.25,0,0,1,.28-1.21l-.08-.46v-1.24a4.11,4.11,0,0,1,.08-.78v-2.24a4.73,4.73,0,0,1-.08-1l-.08-.23v-1.71l-.08-.54L302,414l-.08-.77a6.47,6.47,0,0,0,0-1.4V409.3l-.08-.54c-.05-.05-.05-.16,0-.31l-.07-.16a7.31,7.31,0,0,0-.16-2.94,1.06,1.06,0,0,0,.16-.31,9.29,9.29,0,0,1,1.78.23l.15-.08a6,6,0,0,1,1.24.16l.31.08,1.79-.08.93-.23,1.16.07.46-.15.16-.08A5.66,5.66,0,0,0,312.2,404.88Z"/></g></g></svg>