<?xml version="1.0" encoding="iso-8859-1"?>
<!-- Generator: Adobe Illustrator 18.1.0, SVG Export Plug-In . SVG Version: 6.00 Build 0)  -->
<svg version="1.1" id="Ebene_1" xmlns="http://www.w3.org/2000/svg" xmlns:xlink="http://www.w3.org/1999/xlink" x="0px" y="0px"
	 viewBox="0 0 147.333 46.896" style="enable-background:new 0 0 147.333 46.896;" xml:space="preserve">
<g>
	<g>
		<path style="fill:#FFFFFF;" d="M23.755,21.315c-2.428-4.594-4.828-8.724-7.175-12.292c1.41-0.458,2.825-0.899,4.243-1.322
			c1.108,1.857,2.226,3.828,3.351,5.904c0.73,1.358,1.558,3.828,1.558,3.832c0,0.003,0.73-2.654,1.437-4.379
			c1.043-2.559,2.084-5.198,3.123-7.91c1.323-0.319,2.649-0.624,3.977-0.914c-2.19,5.78-4.381,11.279-6.586,16.413
			c0.022,2.458,0.044,4.917,0.067,7.375c-1.316,0.004-2.632,0.009-3.948,0.014C23.786,25.795,23.77,23.555,23.755,21.315z"/>
		<path style="fill:#FFFFFF;" d="M33.196,18.985c-0.057-5.456,3.467-9.914,7.751-10.577c4.286-0.653,7.93,3.237,7.985,9.466
			c0.055,6.153-3.487,10.486-7.77,10.441C36.878,28.253,33.253,24.373,33.196,18.985z M45.034,18.099
			c-0.033-3.341-1.686-5.538-4.039-5.266c-2.352,0.274-3.948,2.698-3.914,5.828c0.035,3.202,1.682,5.29,4.034,5.232
			C43.467,23.832,45.069,21.517,45.034,18.099z"/>
		<path style="fill:#FFFFFF;" d="M50.889,19.922c-0.037-4.112-0.073-8.224-0.11-12.336c1.276-0.123,2.552-0.235,3.83-0.338
			c0.032,4.152,0.064,8.304,0.096,12.456c0.02,2.537,0.815,3.792,2.525,3.767c1.711-0.025,2.489-1.285,2.474-3.909
			c-0.025-4.221-0.05-8.441-0.074-12.662c1.279-0.075,2.559-0.14,3.84-0.194c0.019,4.286,0.037,8.573,0.056,12.859
			c0.023,5.748-2.596,8.759-6.234,8.749C53.541,28.297,50.939,25.404,50.889,19.922z"/>
		<path style="fill:#FFFFFF;" d="M68.541,0.067C69.959,0.028,71.376,0.006,72.794,0c1.107,3.584,2.208,7.181,3.304,10.777
			c0.732,2.389,1.485,6.337,1.485,6.337s0.738-3.893,1.478-6.296c1.081-3.559,2.166-7.099,3.255-10.611
			c1.284,0.061,2.568,0.136,3.851,0.223c-2.861,9.062-5.694,18.38-8.492,27.762c-0.131,0-0.262,0-0.393,0
			C74.405,18.807,71.491,9.362,68.541,0.067z"/>
		<path style="fill:#FFFFFF;" d="M87.037,6.875c1.28,0.073,2.559,0.156,3.837,0.249c-0.049,6.944-0.099,13.888-0.148,20.832
			c-1.27-0.002-2.539-0.003-3.809-0.004C86.957,20.926,86.997,13.901,87.037,6.875z"/>
		<path style="fill:#FFFFFF;" d="M92.551,23.518c0.997-0.801,1.995-1.592,2.994-2.369c0.604,1.51,1.519,2.697,3.032,2.73
			c1.037,0.023,1.799-0.493,1.808-1.409c0.01-0.954-0.519-1.393-1.97-2.264c-0.205-0.124-0.409-0.249-0.614-0.374
			c-2.399-1.456-4.015-3.192-3.985-6.866c0.028-3.6,2.02-5.808,4.861-5.49c2.108,0.228,3.559,1.263,4.739,3.946
			c-0.97,0.635-1.941,1.289-2.912,1.959c-0.494-1.151-1.025-1.509-1.756-1.572c-0.758-0.066-1.269,0.436-1.277,1.33
			c-0.01,1.087,0.632,1.52,1.498,2.081c0.205,0.13,0.41,0.259,0.614,0.389c2.68,1.687,4.625,3.272,4.586,6.958
			c-0.039,3.603-2.133,5.732-5.578,5.749C95.623,28.323,93.484,26.317,92.551,23.518z"/>
		<path style="fill:#FFFFFF;" d="M109.002,13.416c-1.38-0.162-2.761-0.315-4.143-0.458c0.016-1.463,0.031-2.925,0.047-4.388
			c4.045,0.539,8.077,1.183,12.09,1.932c-0.013,1.319-0.026,2.639-0.039,3.958c-1.374-0.199-2.75-0.389-4.127-0.569
			c-0.051,4.703-0.101,9.406-0.152,14.109c-1.279-0.004-2.557-0.007-3.836-0.01C108.895,23.132,108.949,18.274,109.002,13.416z"/>
		<path style="fill:#FFFFFF;" d="M123.458,11.614c0.102,0.022,0.203,0.044,0.305,0.067c2.23,5.95,4.481,11.444,6.776,16.382
			c-1.316-0.005-2.631-0.011-3.947-0.016c-0.166-0.417-0.332-0.837-0.498-1.26c-1.799-0.039-3.598-0.076-5.398-0.111
			c-0.172,0.447-0.343,0.896-0.515,1.348c-1.232-0.004-2.463-0.008-3.695-0.012C118.832,22.094,121.162,16.595,123.458,11.614z
			 M125.159,23.973c-0.202-0.539-0.403-1.082-0.604-1.629c-0.63-1.704-1.063-3.505-1.063-3.505c0,0.002-0.401,1.686-1.082,3.335
			c-0.218,0.529-0.436,1.063-0.655,1.601C122.89,23.839,124.024,23.905,125.159,23.973z"/>
	</g>
	<g>
		<polygon style="fill:#FFFFFF;" points="73.667,35.206 0,34.206 73.667,33.206 147.333,34.206 		"/>
	</g>
	<g>
		<g>
			<path style="fill:#FFFFFF;" d="M25.337,44.979h-2.223v-0.701h2.223V44.979z"/>
			<path style="fill:#FFFFFF;" d="M46.946,46.753l-0.935-0.001l-0.852-2.069h-2.654l-0.854,2.069l-0.861,0.001l2.925-6.849h0.216
				L46.946,46.753z M44.904,44.08l-1.118-2.875l-1.081,2.875H44.904z"/>
			<path style="fill:#FFFFFF;" d="M56.479,46.751l-1.082,0.002l-2.502-3.402v3.402h-0.837v-6.66l2.466,0.027
				c0.474,0,0.862,0.18,1.165,0.54c0.304,0.359,0.455,0.777,0.455,1.251c0,0.252-0.044,0.485-0.131,0.702
				c-0.087,0.216-0.229,0.414-0.427,0.594c-0.222,0.18-0.465,0.309-0.729,0.387l-0.881-0.002L56.479,46.751z M54.65,40.893
				c-0.078-0.029-0.16-0.055-0.247-0.076c-0.088-0.021-0.167-0.031-0.239-0.031h-1.269v2.231h1.485c0.287,0,0.511-0.1,0.67-0.301
				s0.238-0.446,0.238-0.733c0-0.24-0.054-0.459-0.162-0.657C55.019,41.128,54.86,40.984,54.65,40.893z"/>
			<path style="fill:#FFFFFF;" d="M65.486,46.753h-3.618v-6.66h3.618v0.72h-2.817v1.972h2.817v0.684h-2.817v2.565h2.817V46.753z"/>
			<path style="fill:#FFFFFF;" d="M76.645,46.896h-0.161l-4.86-5.346v5.202h-0.747V39.93l0.188,0.002l4.816,5.352v-5.191h0.765
				V46.896z"/>
			<path style="fill:#FFFFFF;" d="M85.016,46.383c-0.234,0.114-0.468,0.204-0.702,0.271c-0.234,0.065-0.465,0.099-0.693,0.099h-2.52
				v-6.66h2.835c0.846,0.084,1.515,0.458,2.007,1.121s0.738,1.42,0.738,2.272c0,0.63-0.139,1.203-0.414,1.719
				C85.991,45.72,85.574,46.114,85.016,46.383z M85.799,42.991c-0.049-0.522-0.251-0.984-0.608-1.387
				c-0.356-0.401-0.793-0.659-1.309-0.773h-1.998v5.202h1.719c0.678,0,1.218-0.271,1.62-0.811c0.401-0.54,0.603-1.154,0.603-1.845
				C85.826,43.246,85.817,43.117,85.799,42.991z"/>
			<path style="fill:#FFFFFF;" d="M95.392,41.254l-0.711,0.333c-0.066-0.276-0.225-0.499-0.477-0.671
				c-0.252-0.171-0.528-0.256-0.828-0.256c-0.223,0-0.417,0.043-0.585,0.13c-0.168,0.088-0.307,0.229-0.414,0.428
				c-0.072,0.162-0.108,0.327-0.108,0.495c0,0.402,0.189,0.705,0.567,0.909l1.71,0.63c0.312,0.174,0.551,0.408,0.716,0.705
				c0.165,0.296,0.247,0.611,0.247,0.947c0,0.287-0.059,0.562-0.176,0.825c-0.116,0.264-0.292,0.497-0.526,0.7
				c-0.42,0.294-0.891,0.44-1.413,0.44c-0.468,0-0.896-0.117-1.287-0.352c-0.21-0.155-0.37-0.331-0.481-0.526
				c-0.11-0.194-0.211-0.448-0.301-0.761l0.729-0.368c0,0.378,0.135,0.692,0.405,0.944c0.27,0.252,0.588,0.378,0.954,0.378
				c0.144,0,0.286-0.022,0.427-0.066c0.142-0.045,0.279-0.118,0.414-0.22c0.136-0.102,0.243-0.239,0.324-0.413
				c0.081-0.173,0.122-0.355,0.122-0.547c0-0.287-0.065-0.499-0.194-0.637c-0.129-0.137-0.23-0.229-0.306-0.277
				s-0.227-0.123-0.454-0.225l-1.152-0.405c-0.342-0.162-0.618-0.382-0.828-0.661s-0.314-0.596-0.314-0.949
				c0-0.091,0.022-0.254,0.067-0.491c0.045-0.236,0.188-0.487,0.427-0.751c0.24-0.264,0.503-0.425,0.788-0.481
				s0.538-0.086,0.761-0.086c0.096,0,0.171,0.004,0.225,0.01s0.193,0.031,0.419,0.076c0.225,0.045,0.465,0.176,0.72,0.392
				S95.291,40.935,95.392,41.254z"/>
			<path style="fill:#FFFFFF;" d="M105.086,46.753h-3.618v-6.66h3.618v0.72h-2.816v1.972h2.816v0.684h-2.816v2.565h2.816V46.753z"/>
			<path style="fill:#FFFFFF;" d="M114.985,46.753h-3.618v-6.66h3.618v0.72h-2.816v1.972h2.816v0.684h-2.816v2.565h2.816V46.753z"/>
			<path style="fill:#FFFFFF;" d="M124.337,44.979h-2.223v-0.701h2.223V44.979z"/>
		</g>
	</g>
</g>
</svg>
